<?xml version="1.0" standalone="no"?><!DOCTYPE svg PUBLIC "-//W3C//DTD SVG 1.1//EN" "http://www.w3.org/Graphics/SVG/1.1/DTD/svg11.dtd"><svg t="1717725306991" class="icon" viewBox="0 0 1024 1024" version="1.1" xmlns="http://www.w3.org/2000/svg" p-id="22126" xmlns:xlink="http://www.w3.org/1999/xlink" width="280" height="280"><path d="M508.103239 386.972194c-51.710326 34.419761 77.541284 171.328275 158.358334 292.741441 80.829153 121.425269 188.271899 191.943017 239.974156 157.519222 51.71436-34.415727 59.694-118.613434-14.644132-244.12131-106.365615-179.626616-331.969964-240.567183-383.688358-206.139353z" fill="#E4BC96" p-id="22127"></path><path d="M887.773538 593.111547c-26.984738-45.578348-61.67479-83.50786-99.229122-114.187921a412.698263 412.698263 0 0 1 34.456069 49.410834c74.321995 125.507875 66.354458 209.701548 14.648166 244.129378-31.13996 20.7277-82.458969 3.380656-136.041161-40.180593 73.603908 88.175424 157.107734 134.052303 200.81018 104.969783 51.71436-34.448001 59.677863-118.645708-14.644132-244.141481z" fill="#CCA276" p-id="22128"></path><path d="M715.376201 142.935603m-96.118756 0a96.118757 96.118757 0 1 0 192.237513 0 96.118757 96.118757 0 1 0-192.237513 0Z" fill="#E4BC96" p-id="22129"></path><path d="M509.987209 386.972194c51.710326 34.419761-77.541284 171.324241-158.366403 292.741441-80.825119 121.425269-188.267864 191.943017-239.982224 157.519222S51.960718 718.611354 126.286748 593.111547c106.373683-179.626616 331.982067-240.567183 383.700461-206.139353z" fill="#E4BC96" p-id="22130"></path><path d="M338.824336 460.543829c-150.447276 121.421235-117.027995 342.692857-217.314076 293.97187-31.845944-15.45904-17.395454-55.397581-11.332057-105.752416-41.866887 94.888327-29.38105 159.41126 14.256849 188.461505 51.71436 34.431864 159.165174-36.093953 239.990292-157.519221 74.717346-112.227302 190.801339-237.706938 167.06413-283.220739-35.077335 57.378371-128.097829 11.949289-192.665138 64.059001z" fill="#CCA276" p-id="22131"></path><path d="M871.289813 866.125769h-0.012103c-63.901666-0.004034-153.226837-69.70284-222.284206-173.434125-20.828555-31.297293-45.074073-63.845188-68.520821-95.32402-62.037868-83.290013-111.037214-149.071615-103.654635-191.652555 2.045337-11.795989 8.379025-21.52647 18.315251-28.138518 11.852468-7.890888 29.017973-11.89281 51.020478-11.89281 90.051326 0 265.316976 70.949407 355.493362 223.240311 107.317685 181.179782 34.556924 249.232636 9.698207 265.776874-11.388536 7.580255-24.870819 11.424843-40.055533 11.424843z m-325.14007-468.168459c-14.870047 0-26.94843 2.360005-33.136887 6.482953-2.58592 1.722602-3.860726 3.687255-4.39324 6.789552-5.014506 28.913084 49.576236 102.202324 97.740504 166.858386 23.696868 31.817705 48.200575 64.71254 69.505165 96.719852 52.609952 79.033936 136.62612 159.044148 195.416459 159.048181h0.008069c8.713864 0 16.173092-2.025166 22.171942-6.014986 49.632715-33.031998 42.125076-118.274562-19.581988-222.469779-83.790253-141.495395-245.097585-207.414159-327.730024-207.414159z" fill="#6E6E96" p-id="22132"></path><path d="M138.732243 866.125769c-15.196817 0-28.6791-3.844589-40.07167-11.424843-24.850648-16.544238-97.599307-84.601127 9.702241-265.776874 90.184454-152.290903 265.450104-223.24031 355.505465-223.240311 22.002506 0 39.16801 4.001923 51.020478 11.89281 9.932191 6.612047 16.269913 16.342528 18.31525 28.138518 7.382579 42.58094-41.620801 108.37061-103.662703 191.656589-23.446748 31.474798-47.692266 64.022692-68.524855 95.319986-69.049301 103.735319-158.378505 173.434125-222.284206 173.434125z m325.14007-468.168459c-82.632439 0-243.943805 65.918765-327.734058 207.414159-61.707064 104.191183-69.214703 189.433747-19.590057 222.465745 6.002884 3.993854 13.466147 6.019021 22.188079 6.01902 58.79034 0 142.810542-80.010212 195.420494-159.048181 21.30459-32.007312 45.808297-64.902147 69.505165-96.715818 48.164267-64.660095 102.759043-137.949336 97.744538-166.86242-0.536548-3.102297-1.811354-5.06695-4.39324-6.789552-6.192491-4.122948-18.270874-6.482953-33.140921-6.482953z" fill="#6E6E96" p-id="22133"></path><path d="M793.712221 702.426159c0 174.228862-127.032801 247.917488-283.725012 247.917488-156.70028 0-283.729047-73.708797-283.729047-247.917488 0-174.220793 127.028767-315.453965 283.729047-315.453965 156.692211 0 283.725013 141.233172 283.725012 315.453965z" fill="#E4BC96" p-id="22134"></path><path d="M769.837849 698.250766c0 174.224828-115.761258 247.913454-258.551629 247.913454-142.79844 0-258.5718-73.704763-258.5718-247.913454 0-174.228862 115.757223-315.445897 258.5718-315.445897 142.790372-0.012103 258.551629 141.217035 258.551629 315.445897z" fill="#E4BC96" p-id="22135"></path><path d="M671.669721 715.561502c0 141.49136-70.824347 201.33866-158.172762 201.33866-87.360517 0-158.176795-59.851334-158.176795-201.33866 0-141.503463 70.816279-256.207761 158.176795-256.207761 87.360517-0.008068 158.172761 114.692196 158.172762 256.207761z" fill="#FFDFC2" opacity=".47" p-id="22136"></path><path d="M507.252024 966.335201c-172.014088 0-274.708584-98.712745-274.708585-264.050239 0-182.833802 123.232589-331.582681 274.708585-331.582681 73.987157-0.004034 143.343056 34.903865 195.299468 98.293188 51.193949 62.457424 79.388945 145.30771 79.388945 233.293528 0 165.333459-102.686428 264.046204-274.688413 264.046204z m0-563.363385c-133.677122 0-242.435016 134.270149-242.435016 299.309112 0 69.686704 23.620218 231.776669 242.435016 231.77667 72.885821 0 242.414845-22.587464 242.414844-231.77667 0-80.542725-25.596974-156.127424-72.070913-212.832084-45.711476-55.768727-106.208281-86.481062-170.343931-86.477028z" fill="#6E6E96" p-id="22137"></path><path d="M301.649219 142.935603m-96.118757 0a96.118757 96.118757 0 1 0 192.237513 0 96.118757 96.118757 0 1 0-192.237513 0Z" fill="#E4BC96" p-id="22138"></path><path d="M297.615023 259.22534c-61.896671 0-112.251507-50.354836-112.251507-112.255541S235.718352 34.714258 297.615023 34.714258s112.255541 50.35887 112.255541 112.255541-50.35887 112.255541-112.255541 112.255541z m0-192.237514c-44.101832 0-79.977938 35.88014-79.977938 79.981973s35.88014 79.981972 79.977938 79.981972c44.101832 0 79.981972-35.88014 79.981972-79.981972s-35.88014-79.981972-79.981972-79.981973zM711.342005 259.22534c-61.900705 0-112.255541-50.354836-112.255541-112.255541S649.4413 34.714258 711.342005 34.714258s112.255541 50.35887 112.255541 112.255541-50.354836 112.255541-112.255541 112.255541z m0-192.237514c-44.105866 0-79.981972 35.88014-79.981972 79.981973s35.88014 79.981972 79.981972 79.981972 79.981972-35.88014 79.981972-79.981972-35.876106-79.981972-79.981972-79.981973z" fill="#6E6E96" p-id="22139"></path><path d="M244.597617 270.900303a265.050719 242.660931 0 1 0 530.101438 0 265.050719 242.660931 0 1 0-530.101438 0Z" fill="#E4BC96" p-id="22140"></path><path d="M516.183734 40.208833c-7.386613 0-14.696576 0.346941-21.921822 0.90366 125.657141 0.246086 208.16452 91.305961 208.16452 203.609912 0 112.453217-82.785738 203.613946-208.676863 203.613946-125.899192 0-227.948217-91.16073-227.948217-203.613946 0-14.442422 1.710499-28.521767 4.909617-42.108939a218.213702 218.213702 0 0 0-13.050625 74.273584c0 130.711988 115.733018 236.674184 258.52339 236.674184 142.782303 0 258.519355-105.958161 258.519355-236.674184-0.004034-130.716023-115.741087-236.678218-258.519355-236.678217z" fill="#CCA276" p-id="22141"></path><path d="M351.661148 414.578198a158.789993 100.298184 0 1 0 317.579987 0 158.789993 100.298184 0 1 0-317.579987 0Z" fill="#FFDFC2" p-id="22142"></path><path d="M556.574105 395.770776c0 15.003175-22.45837 27.166277-50.149092 27.166276-27.698791 0-50.161195-12.159067-50.161194-27.166276 0-15.003175 22.450301-39.700524 50.161194-39.700524 27.690722 0 50.149092 24.697349 50.149092 39.700524z" fill="#6E6E96" p-id="22143"></path><path d="M389.409121 272.485742m-25.076563 0a25.076563 25.076563 0 1 0 50.153126 0 25.076563 25.076563 0 1 0-50.153126 0Z" fill="#6E6E96" p-id="22144"></path><path d="M628.967755 272.485742m-25.076563 0a25.076563 25.076563 0 1 0 50.153126 0 25.076563 25.076563 0 1 0-50.153126 0Z" fill="#6E6E96" p-id="22145"></path><path d="M390.921944 588.15352l-0.028239 0.016137c4.506197-3.751802 111.81178-90.821857 240.13149 0.580924a12.114691 12.114691 0 0 0 14.055139-19.727219c-143.871536-102.452445-268.487854-0.443762-269.718284 0.588993a12.102588 12.102588 0 1 0 15.559894 18.541165z" fill="#FF6969" p-id="22146"></path><path d="M390.921944 609.062759l-0.028239 0.016136c4.506197-3.751802 111.81178-90.817823 240.13149 0.57689a12.102588 12.102588 0 0 0 14.055139-19.71915c-143.871536-102.456479-268.487854-0.45183-269.718284 0.588992a12.102588 12.102588 0 0 0 15.559894 18.537132z" fill="#FF6969" opacity=".22" p-id="22147"></path><path d="M504.048872 464.783769c-70.864689 0-130.320671-30.821258-146.63496-72.39365-2.896553 7.378545-4.453753 15.087893-4.453753 23.027192 0 52.698704 67.641366 95.420841 151.080645 95.420841 83.439278 0 151.072576-42.722137 151.072576-95.420841 0-7.943332-1.565268-15.652681-4.453753-23.027192-16.298152 41.572391-75.742032 72.393649-146.610755 72.39365z" fill="#E4BC96" opacity=".51" p-id="22148"></path><path d="M505.61414 533.72818c-155.050294 0-281.187503-116.096096-281.187503-258.793681C224.426637 132.23288 350.567881 16.136784 505.61414 16.136784s281.187503 116.096096 281.187504 258.797715c0 142.697585-126.13721 258.793681-281.187504 258.793681z m0-485.317827c-137.25142 0-248.913935 101.617366-248.913934 226.524146 0 124.902746 111.662514 226.520112 248.913934 226.520112 137.25142 0 248.913935-101.617366 248.913935-226.520112 0-124.90678-111.65848-226.524146-248.913935-226.524146z" fill="#6E6E96" p-id="22149"></path><path d="M505.904602 867.929055c0 86.598054-70.195012 135.89593-156.789032 135.89593s-156.793066-49.297877-156.793066-135.89593c0-86.59402 70.199047-156.793066 156.793066-156.793066s156.789032 70.199047 156.789032 156.793066zM826.9661 867.929055c0 86.598054-70.199047 135.89593-156.7971 135.89593-86.589985 0-156.793066-49.297877-156.793067-135.89593 0-86.59402 70.203081-156.793066 156.793067-156.793066 86.598054 0 156.7971 70.199047 156.7971 156.793066z" fill="#CCA276" p-id="22150"></path><path d="M660.83387 838.94739m-100.729843 0a100.729843 100.729843 0 1 0 201.459686 0 100.729843 100.729843 0 1 0-201.459686 0Z" fill="#E4BC96" p-id="22151"></path><path d="M332.393827 838.66903m-100.729843 0a100.729843 100.729843 0 1 0 201.459686 0 100.729843 100.729843 0 1 0-201.459686 0Z" fill="#E4BC96" p-id="22152"></path><path d="M345.081374 1023.995966c-101.819076 0-172.929851-62.517937-172.929851-152.032715 0-95.356294 77.573557-172.929851 172.929851-172.929851 95.352259 0 172.925816 77.573557 172.925817 172.929851 0 89.514778-71.110775 152.032715-172.925817 152.032715z m0-292.688997c-77.55742 0-140.656282 63.098861-140.656282 140.656282 0 82.72926 70.642808 119.759146 140.656282 119.759146 70.009439 0 140.652248-37.029886 140.652248-119.759146 0-77.561455-63.094827-140.656282-140.652248-140.656282z" fill="#6E6E96" p-id="22153"></path><path d="M666.134803 1023.995966c-101.819076 0-172.929851-62.517937-172.92985-152.032715 0-95.356294 77.573557-172.929851 172.92985-172.929851s172.933885 77.573557 172.933885 172.929851c0 89.514778-71.114809 152.032715-172.933885 152.032715z m0-292.688997c-77.561455 0-140.656282 63.098861-140.656281 140.656282 0 82.72926 70.646842 119.759146 140.656281 119.759146 70.013474 0 140.660316-37.029886 140.660316-119.759146 0-77.561455-63.098861-140.656282-140.660316-140.656282zM510.451141 531.009132c-98.091479 0-174.930812-51.141504-174.930812-116.430934 0-65.293464 76.839333-116.434968 174.930812-116.434968 98.087444 0 174.926778 51.145538 174.926778 116.434968 0.004034 65.28943-76.835299 116.430934-174.926778 116.430934z m0-200.592333c-77.327471 0-142.657243 38.54271-142.657243 84.161399 0 45.61869 65.329772 84.157365 142.657243 84.157365 77.327471 0 142.653209-38.538675 142.653209-84.157365 0.004034-45.61869-65.325738-84.161399-142.653209-84.161399z" fill="#6E6E96" p-id="22154"></path></svg>